<?xml version="1.0" encoding="utf-8"?>
<!-- Generator: Adobe Illustrator 16.0.0, SVG Export Plug-In . SVG Version: 6.00 Build 0)  -->
<!DOCTYPE svg PUBLIC "-//W3C//DTD SVG 1.1//EN" "http://www.w3.org/Graphics/SVG/1.1/DTD/svg11.dtd">
<svg version="1.1" id="图层_1" xmlns="http://www.w3.org/2000/svg" xmlns:xlink="http://www.w3.org/1999/xlink" x="0px" y="0px"
	 width="150px" height="150px" viewBox="0 0 150 150" enable-background="new 0 0 150 150" xml:space="preserve">
<g>
	<g>
		<defs>
			<rect id="SVGID_1_" x="2.022" y="5.694" width="148.983" height="140.611"/>
		</defs>
		<clipPath id="SVGID_2_">
			<use xlink:href="#SVGID_1_"  overflow="visible"/>
		</clipPath>
		<path clip-path="url(#SVGID_2_)" fill="#C02920" d="M132.26,95.887l-20.098-23.818h12.653
			c-1.86-28.286-25.309-50.616-53.592-50.616c-29.402,0-53.594,24.564-53.594,54.709c0,30.146,24.191,54.709,53.594,54.709
			c10.792,0,21.213-3.35,30.146-9.676c3.35-2.604,8.562-1.489,10.793,1.859c2.604,3.35,1.488,8.561-1.86,10.793
			c-11.537,8.188-24.935,12.283-39.077,12.283C33.263,146.131,2,114.494,2,76.16C2,37.828,33.263,5.821,71.225,5.821
			c36.101,0,66.245,30.89,69.595,66.247h10.049L132.26,95.887z M49.639,46.761c-1.117-2.605-0.372-4.838,2.604-6.699
			c2.978-1.489,5.21-1.116,7.071,1.861l14.142,22.33l14.516-22.33c1.86-2.605,4.094-3.35,6.698-2.233
			c2.979,1.116,3.723,3.721,2.605,7.071L82.761,68.719h12.28c1.117,1.117,1.861,2.233,1.861,3.722c0,1.488-0.744,2.977-1.861,3.721
			h-15.63v6.326h15.631c1.117,1.117,1.861,2.232,1.861,3.724c0,1.487-0.744,2.978-1.861,3.722H79.411v16.004
			c0.373,4.465-1.487,7.069-5.582,7.069s-6.327-2.231-5.955-7.069V89.934H52.243c-1.489-0.744-2.233-2.234-2.233-3.723
			c0-1.861,0.744-2.979,2.233-3.723h15.631V76.16H52.615c-1.489-1.115-2.233-2.232-2.233-3.72c0-1.489,0.744-2.978,2.233-3.722
			h11.909L49.639,46.761z"/>
	</g>
</g>
</svg>
