<?xml version="1.0" encoding="utf-8"?>
<!-- Generator: Adobe Illustrator 16.0.0, SVG Export Plug-In . SVG Version: 6.00 Build 0)  -->
<!DOCTYPE svg PUBLIC "-//W3C//DTD SVG 1.1//EN" "http://www.w3.org/Graphics/SVG/1.1/DTD/svg11.dtd">
<svg version="1.1" id="图层_1" xmlns="http://www.w3.org/2000/svg" xmlns:xlink="http://www.w3.org/1999/xlink" x="0px" y="0px"
	 width="150px" height="150px" viewBox="0 0 150 150" enable-background="new 0 0 150 150" xml:space="preserve">
<g>
	<g>
		<defs>
			<rect id="SVGID_1_" x="5.593" y="1.428" width="138.814" height="149.145"/>
		</defs>
		<clipPath id="SVGID_2_">
			<use xlink:href="#SVGID_1_"  overflow="visible"/>
		</clipPath>
		<path clip-path="url(#SVGID_2_)" fill="#C02920" d="M5.57,8.965v133.98c0,4.096,3.351,7.444,7.444,7.444h123.933
			c4.093,0,7.442-3.351,7.442-7.444V8.965c0-4.093-3.351-7.443-7.442-7.443H13.015C8.921,1.521,5.57,4.872,5.57,8.965
			 M130.619,137.363H19.341V14.92h111.278V137.363z M39.81,52.137h10.049v-9.304H39.81V52.137z M59.907,52.137h50.615v-9.304H59.907
			V52.137z M39.81,80.421h10.049v-9.304H39.81V80.421z M59.907,80.421h50.615v-9.304H59.907V80.421z M39.81,108.705h10.049v-9.303
			H39.81V108.705z M59.907,108.705h50.615v-9.303H59.907V108.705z"/>
	</g>
</g>
</svg>
