<?xml version="1.0" encoding="utf-8"?>
<!-- Generator: Adobe Illustrator 16.0.0, SVG Export Plug-In . SVG Version: 6.00 Build 0)  -->
<!DOCTYPE svg PUBLIC "-//W3C//DTD SVG 1.1//EN" "http://www.w3.org/Graphics/SVG/1.1/DTD/svg11.dtd">
<svg version="1.1" id="图层_1" xmlns="http://www.w3.org/2000/svg" xmlns:xlink="http://www.w3.org/1999/xlink" x="0px" y="0px"
	 width="150px" height="150px" viewBox="0 0 150 150" enable-background="new 0 0 150 150" xml:space="preserve">
<g>
	<g>
		<defs>
			<rect id="SVGID_1_" x="8.173" y="2.707" width="134.456" height="145.35"/>
		</defs>
		<clipPath id="SVGID_2_">
			<use xlink:href="#SVGID_1_"  overflow="visible"/>
		</clipPath>
		<path clip-path="url(#SVGID_2_)" fill="#C02920" d="M15.968,134.477V38.085c0-4.094,3.349-7.444,7.443-7.444h53.591V10.172
			c0-4.093,3.352-7.443,7.445-7.443h49.498c4.094,0,7.443,3.351,7.443,7.443v81.506c-1.117-4.467-2.605-7.814-4.838-10.42
			s-4.467-5.211-6.701-7.072v-59.92H88.912v16.375h19.354c4.096,0,7.443,3.351,7.443,7.444v29.773
			c-4.094-1.116-7.816-1.488-11.537-1.488V41.806H27.505v92.301H69.56c2.978,0,5.583,2.604,5.583,5.582
			c0,2.977-2.605,5.582-5.583,5.582H13.734c-2.977,0-5.582-2.605-5.582-5.582c0-2.979,2.605-5.582,5.582-5.582h2.234V134.477
			L15.968,134.477z M73.653,50.738h15.632v11.166H73.653V50.738z M73.653,70.836h15.632v11.166H73.653V70.836z M56.907,81.629
			H41.276V70.463h15.631V81.629z M56.907,61.904H41.276V50.738h15.631V61.904z M56.907,122.568H41.276v-11.166h15.631V122.568z
			 M56.907,102.842H41.276V91.678h15.631V102.842z M90.402,147.875c-4.469,0-7.816-3.721-7.816-8.559v-23.82
			c0-4.838,3.35-8.561,7.816-8.561h1.488v-7.814c0-11.91,8.559-21.586,19.725-21.957c11.166-0.373,20.469,8.559,21.213,20.469
			c0.373,1.861-0.371,3.721-1.859,4.838s-3.35,1.117-4.84,0.371c-1.488-0.744-2.604-2.604-2.604-4.465
			c-0.371-6.326-5.582-11.166-11.537-11.166c-5.953,0.373-10.793,5.584-10.793,11.91v7.814h33.496c4.467,0,7.814,3.723,7.814,8.561
			v23.82c0,4.838-3.35,8.559-7.814,8.559H90.402z M97.102,115.869c-2.979,0-5.584,2.604-5.584,5.582v11.166
			c0,2.977,2.605,5.582,5.584,5.582h30.891c2.977,0,5.584-2.605,5.584-5.582v-11.166c0-2.979-2.607-5.582-5.584-5.582H97.102z"/>
	</g>
</g>
</svg>
